<svg width="25" height="24" viewBox="0 0 25 24" fill="none" xmlns="http://www.w3.org/2000/svg">
<path d="M6.52148 12H15.5215C16.5824 12 17.5998 12.4214 18.3499 13.1716C19.1001 13.9217 19.5215 14.9391 19.5215 16C19.5215 17.0609 19.1001 18.0783 18.3499 18.8284C17.5998 19.5786 16.5824 20 15.5215 20H7.52148C7.25627 20 7.00191 19.8946 6.81438 19.7071C6.62684 19.5196 6.52148 19.2652 6.52148 19V5C6.52148 4.73478 6.62684 4.48043 6.81438 4.29289C7.00191 4.10536 7.25627 4 7.52148 4H14.5215C15.5824 4 16.5998 4.42143 17.3499 5.17157C18.1001 5.92172 18.5215 6.93913 18.5215 8C18.5215 9.06087 18.1001 10.0783 17.3499 10.8284C16.5998 11.5786 15.5824 12 14.5215 12" stroke="black" stroke-width="3" stroke-linecap="round" stroke-linejoin="round"/>
</svg>
