<svg width="26" height="26" viewBox="0 0 26 26" fill="none" xmlns="http://www.w3.org/2000/svg">
<path d="M9.75 22.75H4.33333C3.73502 22.75 3.25 22.265 3.25 21.6667V16.25C3.25 15.6517 3.73502 15.1667 4.33333 15.1667H9.75C10.3483 15.1667 10.8333 15.6517 10.8333 16.25V21.6667C10.8333 22.265 10.3483 22.75 9.75 22.75Z" stroke="white" stroke-width="2.5" stroke-linecap="round" stroke-linejoin="round"/>
<path d="M9.75 10.8333H4.33333C3.73502 10.8333 3.25 10.3483 3.25 9.74998V4.33331C3.25 3.735 3.73502 3.24998 4.33333 3.24998H9.75C10.3483 3.24998 10.8333 3.735 10.8333 4.33331V9.74998C10.8333 10.3483 10.3483 10.8333 9.75 10.8333Z" stroke="white" stroke-width="2.5" stroke-linecap="round" stroke-linejoin="round"/>
<path d="M15.1667 21.6667H22.75" stroke="white" stroke-width="2.5" stroke-linecap="round" stroke-linejoin="round"/>
<path d="M15.1667 16.25H22.75" stroke="white" stroke-width="2.5" stroke-linecap="round" stroke-linejoin="round"/>
<path d="M15.1667 9.75H22.75" stroke="white" stroke-width="2.5" stroke-linecap="round" stroke-linejoin="round"/>
<path d="M15.1667 4.33331H22.75" stroke="white" stroke-width="2.5" stroke-linecap="round" stroke-linejoin="round"/>
</svg>
