<svg width="24" height="24" viewBox="0 0 24 24" fill="none" xmlns="http://www.w3.org/2000/svg">
<path d="M7.83278 9.99887C7.68734 10.0065 7.54254 9.97527 7.41439 9.90858C7.28624 9.8419 7.17973 9.74238 7.10664 9.62102C7.03355 9.49966 6.99672 9.36119 7.00023 9.22092C7.00374 9.08066 7.04745 8.94406 7.12653 8.82623L11.3302 2.39141C11.3962 2.27683 11.4919 2.18063 11.6079 2.11214C11.7239 2.04365 11.8563 2.00519 11.9923 2.00049C12.1283 1.99579 12.2632 2.02501 12.384 2.08531C12.5048 2.14561 12.6074 2.23496 12.6818 2.34468L16.8584 8.80341C16.9407 8.9173 16.9891 9.05071 16.9984 9.18919C17.0076 9.32768 16.9774 9.46598 16.9109 9.5891C16.8445 9.71222 16.7443 9.81549 16.6213 9.88772C16.4983 9.95995 16.3571 9.99838 16.213 9.99887H7.83278Z" stroke="white" stroke-width="2" stroke-linecap="round" stroke-linejoin="round"/>
<path d="M8.85714 14H3.14286C2.51167 14 2 14.5117 2 15.1429V20.8571C2 21.4883 2.51167 22 3.14286 22H8.85714C9.48833 22 10 21.4883 10 20.8571V15.1429C10 14.5117 9.48833 14 8.85714 14Z" stroke="white" stroke-width="2" stroke-linecap="round" stroke-linejoin="round"/>
<path d="M18 22C20.2091 22 22 20.2091 22 18C22 15.7909 20.2091 14 18 14C15.7909 14 14 15.7909 14 18C14 20.2091 15.7909 22 18 22Z" stroke="white" stroke-width="2" stroke-linecap="round" stroke-linejoin="round"/>
</svg>
